<?xml version="1.0" encoding="utf-8"?>
<!-- Generator: Adobe Illustrator 23.0.1, SVG Export Plug-In . SVG Version: 6.00 Build 0)  -->
<svg version="1.1" id="Ebene_1" xmlns="http://www.w3.org/2000/svg" xmlns:xlink="http://www.w3.org/1999/xlink" x="0px" y="0px"
	 viewBox="0 0 200 200" style="enable-background:new 0 0 200 200;" xml:space="preserve">
<style type="text/css">
	.st0{fill:#009FE3;}
	.st1{fill:#062E3A;}
	.st2{fill:#FFFFFF;}
</style>
<rect class="st0" width="200" height="200"/>
<g>
	<path class="st1" d="M137.25,144.56c0,4.06-3.29,7.35-7.35,7.35c-4.06,0-7.35-3.29-7.35-7.35c0-4.06,3.29-7.35,7.35-7.35
		C133.96,137.21,137.25,140.5,137.25,144.56z M79.52,133.76c-5.01,0-9.08,4.06-9.08,9.08c0,5.01,4.06,9.08,9.08,9.08
		c5.01,0,9.07-3.88,9.07-8.89C88.6,138.01,84.53,133.76,79.52,133.76z M146.89,68.89c-1.57-2.03-3.78-2.61-5.45-2.72l-6.89-0.47
		l-3.72,6.27l9.26,0.28c3.48,0,2.84,3.69,2.15,7.04c-2.7,13.15-4.09,17.81-6.02,23.23c-0.12,0.33-2.85,8.13-13.49,8.13H82.65
		c-3.64,0-5.1-2.86-5.68-4.59c-2.4-7.24-3.42-16.31-3.93-18.9c-0.94-4.78-2.1-9.13-3.38-13.08c-0.62-1.92,0.72-3.91,2.58-3.86
		l38.29,1.15l5.99-6.91l-48.63-3.34c-2.16-0.14-4.12-1.45-5.23-3.48c-2.53-4.63-4.08-6.75-5.8-8.89c-2.98-3.69-6.72-4.17-8.97-4.17
		h-7.54c-3.36,0-6.28,2.82-6.38,6.49c-0.1,3.79,2.68,6.9,6.12,6.9h7.92c1.07,0,2.1,0.52,2.76,1.44c2.92,4.1,5.25,8.74,7.42,13.48
		c8.7,18.97,8.56,36.35,14.93,45.03c2.08,2.83,4.48,5.38,7.16,7.43c5.39,4.11,11.54,6.35,17.59,7.5c6.08,1.15,12.16,1.27,18.13,0.84
		c2.99-0.22,5.95-0.6,8.9-1.1c2.97-0.52,5.81-1.12,8.84-1.98c1.81-0.52,2.85-2.71,2.02-4.71c-0.61-1.45-2.11-2.18-3.54-1.84
		l-0.03,0.01c-2.59,0.63-5.43,1.12-8.19,1.48c-2.78,0.36-5.57,0.59-8.35,0.69c-5.56,0.18-11.1-0.18-16.37-1.41
		c-5.26-1.22-10.24-3.35-14.24-6.67c0,0,29.28-1.03,39.23-1.37c12.89-0.44,16.45-10.15,17.12-11.97c0.74-1.55,3.05-11.9,5.97-24.32
		C148.6,75.23,148.89,71.48,146.89,68.89z"/>
	<path class="st2" d="M133.96,51.44c0.65,0,1.3,0.23,1.82,0.71c0.95,0.87,1.12,2.27,0.49,3.33l-26.13,44.08l-0.35,0.58
		c-1.22,2.06-3.33,3.26-5.55,3.4c-0.15,0.01-0.3,0.01-0.44,0.01c-1.21,0-2.43-0.31-3.54-0.97c-0.94-0.55-1.71-1.32-2.27-2.17
		L86.43,80.66c-0.95-1.44-0.54-3.38,0.9-4.32c0.47-0.31,0.99-0.47,1.51-0.5c0.07,0,0.13-0.01,0.2-0.01c0.62,0,1.23,0.18,1.75,0.53
		l11.7,9.98l29.5-34.04c0.49-0.53,1.13-0.81,1.8-0.86C133.85,51.45,133.91,51.44,133.96,51.44z"/>
</g>
<path class="st1" d="M45.92,67.65h18.84v18.84H45.92V67.65z M43.69,110.83h15.15V95.69H43.69V110.83z M24.7,89.26h12.75V76.51H24.7
	V89.26z M28.02,105.13h9.44v-9.44h-9.44V105.13z M13.42,95.82h6.56v-6.56h-6.56V95.82z"/>
</svg>
